<svg width="32" height="32" viewBox="0 0 32 32" fill="none" xmlns="http://www.w3.org/2000/svg">
<g clip-path="url(#clip0_3108_21)">
<path d="M15.9985 1.25336C18.0238 1.25133 19.978 2.00236 21.481 3.3598C22.9836 4.71717 23.9288 6.58435 24.1323 8.59906C24.3359 10.6141 23.7827 12.6335 22.5815 14.2641C21.6293 15.5565 20.3226 16.53 18.8335 17.0795V28.0864C18.8335 28.8378 18.5348 29.5589 18.0034 30.0903C17.4721 30.6216 16.7509 30.9203 15.9995 30.9203C15.2483 30.9202 14.5278 30.6215 13.9966 30.0903C13.4652 29.5589 13.1665 28.8378 13.1665 28.0864V17.0756C11.6819 16.5222 10.3799 15.5473 9.43213 14.2553C8.23711 12.6264 7.68817 10.612 7.89111 8.60199C8.09416 6.59184 9.03503 4.72767 10.5317 3.37054C12.0285 2.01342 13.9752 1.25925 15.9956 1.25336H15.9985Z" fill="#21272A" stroke="white" stroke-width="3"/>
</g>
<defs>
<clipPath id="clip0_3108_21">
<rect width="32" height="32" fill="white"/>
</clipPath>
</defs>
</svg>
