<svg width="51" height="54" viewBox="0 0 51 54" fill="none" xmlns="http://www.w3.org/2000/svg">
<path d="M24.3584 1.56934C26.1368 1.35334 27.94 1.64616 29.5586 2.41406C31.1773 3.182 32.5453 4.39307 33.5029 5.90723C34.4605 7.42133 34.9686 9.17627 34.9688 10.9678V10.9697C34.966 13.151 34.2115 15.2654 32.832 16.9551C31.7161 18.3219 30.2456 19.3421 28.5938 19.915V46.9834C28.5935 47.6054 28.4696 48.2212 28.2295 48.7949L28.2285 48.7969L27.2256 51.1875L27.1963 51.2578L27.1592 51.3262C26.9965 51.6239 26.7567 51.8728 26.4648 52.0459C26.173 52.219 25.8394 52.3096 25.5 52.3096C25.1606 52.3096 24.827 52.219 24.5352 52.0459C24.2433 51.8728 24.0035 51.6239 23.8408 51.3262L23.8037 51.2578L23.7744 51.1875L22.7715 48.7969L22.7705 48.7949C22.5304 48.2212 22.4065 47.6054 22.4062 46.9834V19.916C21.1163 19.47 19.9329 18.75 18.9414 17.7979C17.6493 16.5569 16.7355 14.9748 16.3066 13.2354C15.8778 11.4958 15.9513 9.67012 16.5186 7.9707C17.0858 6.27145 18.1232 4.76788 19.5107 3.63477C20.8985 2.50161 22.5799 1.78539 24.3584 1.56934ZM27.7168 7.7041C27.5442 7.73846 27.3852 7.82283 27.2607 7.94727C27.1363 8.0717 27.052 8.23075 27.0176 8.40332C26.9832 8.57592 27.0001 8.75535 27.0674 8.91797C27.1348 9.08069 27.2491 9.2205 27.3955 9.31836C27.542 9.41622 27.7145 9.46777 27.8906 9.46777C28.1268 9.46777 28.3535 9.37406 28.5205 9.20703C28.6874 9.04002 28.7812 8.81327 28.7812 8.57715C28.7812 8.40115 28.7286 8.22936 28.6309 8.08301C28.533 7.93657 28.3942 7.8223 28.2314 7.75488C28.0687 7.68747 27.8896 7.66974 27.7168 7.7041Z" fill="#21272A" stroke="#FFFEFE" stroke-width="3"/>
</svg>
