<svg width="24" height="24" viewBox="0 0 24 24" fill="none" xmlns="http://www.w3.org/2000/svg">
<path fill-rule="evenodd" clip-rule="evenodd" d="M2.25 3.93373V8.40083L13.552 10.5459C15.1793 10.8545 15.1795 13.1848 13.5522 13.4934L2.25 15.6387V20.0628L21.7484 12.0213L2.25 3.93373ZM2.31353 2.33617C1.49022 1.98765 0.75 2.68984 0.75 3.40267L0.75 8.7125C0.750266 8.97407 0.84167 9.22737 1.00849 9.42884C1.17532 9.63032 1.40713 9.76736 1.66406 9.8164L13.2725 12.0197L1.66547 14.2228C1.40811 14.2717 1.17568 14.4088 1.00859 14.6105C0.841455 14.8123 0.750001 15.0661 0.75 15.3281V20.6395C0.75 20.6423 0.750015 20.6451 0.750046 20.6478C0.752109 20.8349 0.801115 21.0184 0.892568 21.1816C0.984021 21.3448 1.11499 21.4824 1.27346 21.5818C1.43192 21.6812 1.61282 21.7392 1.79955 21.7505C1.97863 21.7613 2.15756 21.7289 2.32125 21.656L22.3313 13.4035C22.3348 13.402 22.3384 13.4005 22.342 13.399C22.6112 13.2831 22.8405 13.0908 23.0016 12.846C23.1628 12.6011 23.2486 12.3144 23.2486 12.0213C23.2486 11.7282 23.1628 11.4416 23.0016 11.1967C22.8405 10.9519 22.6112 10.7596 22.342 10.6437C22.3389 10.6424 22.3358 10.641 22.3327 10.6397L2.31353 2.33617Z" fill="#21272A"/>
</svg>
